# xmcd CD database file generated by Grip 2.92
# 
# Track frame offsets:
#       150
#       13418
#       26585
#       39086
#       52449
#       65038
#       78639
#       91696
#       104714
#       117562
#       130136
#       142477
#       154796
#       167547
#       180781
#       193231
#       205419
#       217620
#       230333
#       243330
#       255631
# 
# Disc length: 3574 seconds
# 
# Revision: 3
# Processed by: cddbd v1.4b41PL1 Copyright (c) Steve Scherf et al.
# Submitted via: Grip 2.92
# 
DISCID=300df415
DTITLE=The Stripling Brothers - Complete Recorded Works, Vol. 1
DYEAR=1900
DGENRE=
TTITLE0=Birmingham Jail
TTITLE1=Possum Hollow
TTITLE2=Down On The L.N. Railroad
TTITLE3=Whiskers
TTITLE4=Wednesday Night Waltz
TTITLE5=Sweet Silas
TTITLE6=Chinese Breakdown
TTITLE7=When The Shadows Fade Away
TTITLE8=Late In The Evening
TTITLE9=Big Bully
TTITLE10=Coal Valley
TTITLE11=You Are Always In My Dreams
TTITLE12=Big Four
TTITLE13=Pallet On The Floor
TTITLE14=Mayflower
TTITLE15=My Isle Of Golden Dreams
TTITLE16=Boatman's Delight
TTITLE17=Forty Drops
TTITLE18=Soft Voices
TTITLE19=California Blues
TTITLE20=Spanish Flang Dang
EXTD=
EXTT0=
EXTT1=
EXTT2=
EXTT3=
EXTT4=
EXTT5=
EXTT6=
EXTT7=
EXTT8=
EXTT9=
EXTT10=
EXTT11=
EXTT12=
EXTT13=
EXTT14=
EXTT15=
EXTT16=
EXTT17=
EXTT18=
EXTT19=
EXTT20=
PLAYORDER=
